<svg width="13" height="27" xmlns="http://www.w3.org/2000/svg" fill="currentColor" focusable="false"><g fill="none" fill-rule="evenodd"><path d="M6.5 39.084c13.807 0 25-11.416 25-25.5 0-14.082-11.193-25.5-25-25.5-13.806 0-25 11.418-25 25.5 0 14.084 11.194 25.5 25 25.5"/><path d="M.47 9.266h2.583V6.704c0-1.13.028-2.873.834-3.951.846-1.143 2.01-1.92 4.011-1.92 3.26 0 4.635.475 4.635.475l-.647 3.905s-1.078-.318-2.082-.318c-1.005 0-1.906.368-1.906 1.393v2.978h4.122l-.287 3.814H7.898v13.254H3.053V13.08H.47V9.266z" fill="#224199" fill-rule="nonzero"/></g></svg>